{"title":"Simhasanam (2012) Malayalam Movie DVDRip XviD Esubs - Exclusive","uid":7958788,"size":2343246703,"categoryP":"video","categoryS":"movies","magnet":"?xt=urn:btih:3354e59811e7221e143d5c56ec49e576f0b8698d&amp;dn=Simhasanam+%282012%29+Malayalam+Movie+DVDRip+XviD+Esubs+-+Exclusive&amp;tr=udp%3A%2F%2Ftracker.openbittorrent.com%3A80&amp;tr=udp%3A%2F%2Fopen.demonii.com%3A1337&amp;tr=udp%3A%2F%2Ftracker.coppersurfer.tk%3A6969&amp;tr=udp%3A%2F%2Fexodus.desync.com%3A6969","seeders":1,"leechers":0,"uploader":"tykoon123","files":-1,"time":1356521760,"description":"Poster: &lt;a href=&quot;\nhttp://imgr.us/images/p0r3sqkd6bzs2i5o1kje.jpg&quot; rel=&quot;nofollow&quot; target=&quot;_NEW&quot;&gt;\nhttp://imgr.us/images/p0r3sqkd6bzs2i5o1kje.jpg&lt;/a&gt;\n\n\nInfo:\n\nFormat : AVI\nFormat/Info : Audio Video Interleave\nFormat profile : OpenDML\nFile size : 2.18 GiB\nDuration : 2h 36mn\nOverall bit rate : 1 999 Kbps\nDirector : TmG\nWriting application : VirtualDubMod 1.5.10.2 (build 2540/release)\nWriting library : VirtualDubMod build 2540/release\n\nVideo\nID : 0\nFormat : MPEG-4 Visual\nFormat profile : Advanced Simple@L5\nFormat settings, BVOP : 2\nFormat settings, QPel : No\nFormat settings, GMC : No warppoints\nFormat settings, Matrix : Default (MPEG)\nCodec ID : XVID\nCodec ID/Hint : XviD\nDuration : 2h 36mn\nBit rate : 1 539 Kbps\nWidth : 720 pixels\nHeight : 304 pixels\nDisplay aspect ratio : 2.35:1\nFrame rate : 23.976 fps\nColor space : YUV\nChroma subsampling : 4:2:0\nBit depth : 8 bits\nScan type : Progressive\nCompression mode : Lossy\nBits/(Pixel*Frame) : 0.293\nStream size : 1.68 GiB (77%)\nWriting library : XviD 1.2.1 (UTC 2008-12-04)\n\nAudio\nID : 1\nFormat : AC-3\nFormat/Info : Audio Coding 3\nMode extension : HI (hearing impaired)\nFormat settings, Endianness : Big\nCodec ID : 2000\nDuration : 2h 36mn\nBit rate mode : Constant\nBit rate : 448 Kbps\nChannel(s) : 6 channels\nChannel positions : Front: L C R, Side: L R, LFE\nSampling rate : 48.0 KHz\nBit depth : 16 bits\nCompression mode : Lossy\nStream size : 501 MiB (22%)\nAlignment : Split accross interleaves\nInterleave, duration : 42 ms (1.00 video frame)\nInterleave, preload duration : 500 ms\n\n\nScreens: &lt;a href=&quot;\nhttp://www.shotpix.com/images/75777339382490871874.jpg&quot; rel=&quot;nofollow&quot; target=&quot;_NEW&quot;&gt;\nhttp://www.shotpix.com/images/75777339382490871874.jpg&lt;/a&gt; &lt;a href=&quot;\nhttp://www.shotpix.com/images/21756725319190004985.jpg&quot; rel=&quot;nofollow&quot; target=&quot;_NEW&quot;&gt;\nhttp://www.shotpix.com/images/21756725319190004985.jpg&lt;/a&gt; &lt;a href=&quot;\nhttp://www.shotpix.com/images/71582527098367012093.jpg&quot; rel=&quot;nofollow&quot; target=&quot;_NEW&quot;&gt;\nhttp://www.shotpix.com/images/71582527098367012093.jpg&lt;/a&gt; &lt;a href=&quot;\nhttp://www.shotpix.com/images/76862355798088686384.jpg&quot; rel=&quot;nofollow&quot; target=&quot;_NEW&quot;&gt;\nhttp://www.shotpix.com/images/76862355798088686384.jpg&lt;/a&gt; &lt;a href=&quot;\nhttp://www.shotpix.com/images/30609547755632824766.jpg&quot; rel=&quot;nofollow&quot; target=&quot;_NEW&quot;&gt;\nhttp://www.shotpix.com/images/30609547755632824766.jpg&lt;/a&gt; &lt;a href=&quot;\nhttp://www.shotpix.com/images/07965108690076316567.jpg&quot; rel=&quot;nofollow&quot; target=&quot;_NEW&quot;&gt;\nhttp://www.shotpix.com/images/07965108690076316567.jpg&lt;/a&gt; &lt;a href=&quot;\nhttp://www.shotpix.com/images/65050902084318708232.jpg&quot; rel=&quot;nofollow&quot; target=&quot;_NEW&quot;&gt;\nhttp://www.shotpix.com/images/65050902084318708232.jpg&lt;/a&gt;\n\n","torrent":{"xt":"urn:btih:3354e59811e7221e143d5c56ec49e576f0b8698d","amp;dn":"Simhasanam+%282012%29+Malayalam+Movie+DVDRip+XviD+Esubs+-+Exclusive","amp;tr":["udp%3A%2F%2Ftracker.openbittorrent.com%3A80","udp%3A%2F%2Fopen.demonii.com%3A1337","udp%3A%2F%2Ftracker.coppersurfer.tk%3A6969","udp%3A%2F%2Fexodus.desync.com%3A6969"],"infoHash":"3354e59811e7221e143d5c56ec49e576f0b8698d","infoHashBuffer":{"type":"Buffer","data":[51,84,229,152,17,231,34,30,20,61,92,86,236,73,229,118,240,184,105,141]},"announce":[],"urlList":[]}}